<svg height="512" viewBox="0 0 512 512" width="512" xmlns="http://www.w3.org/2000/svg" xmlns:xlink="http://www.w3.org/1999/xlink"><linearGradient id="New_Gradient_Swatch_2" gradientUnits="userSpaceOnUse" x1="256" x2="256" y1="85.585" y2="407.363"><stop offset="0" stop-color="#fc5c7d"/><stop offset=".129" stop-color="#f35e85"/><stop offset=".343" stop-color="#d9659b"/><stop offset=".616" stop-color="#b070bf"/><stop offset=".934" stop-color="#777ff0"/><stop offset="1" stop-color="#6a82fb"/></linearGradient><linearGradient id="New_Gradient_Swatch_2-2" x1="296" x2="296" xlink:href="#New_Gradient_Swatch_2" y1="85.585" y2="407.363"/><linearGradient id="New_Gradient_Swatch_2-4" x1="248" x2="248" xlink:href="#New_Gradient_Swatch_2" y1="85.585" y2="407.363"/><g id="GD001"><path d="m315.438 224.917a173.015 173.015 0 0 1 -19.438-56.193v-.724h-.109a170.757 170.757 0 0 1 -1.9-18.433l-6-125.947a8 8 0 0 0 -7.991-7.62h-48a8 8 0 0 0 -7.991 7.62l-6 125.947a170.757 170.757 0 0 1 -1.9 18.433h-.109v.724a173.015 173.015 0 0 1 -19.438 56.193 163.767 163.767 0 0 0 -20.562 79.348v163.124a24.033 24.033 0 0 0 19.484 23.572c11.989 2.299 32.216 5.039 60.516 5.039s48.527-2.74 60.515-5.039a24.033 24.033 0 0 0 19.485-23.572v-163.124a163.767 163.767 0 0 0 -20.562-79.348zm4.562 200.954c-9.334 2.205-30.631 6.129-64 6.129-33.163 0-54.6-3.94-64-6.145v-79.592c11.651 2.465 32.953 5.737 64 5.737 12.158 0 22.822-.5 32-1.261v33.261h16v-35c6.548-.894 11.876-1.866 16-2.738zm-90.2-244.165a40.655 40.655 0 0 0 21.149-17.616c1.531-2.561 3.419-4.09 5.051-4.09s3.52 1.529 5.05 4.089a40.655 40.655 0 0 0 21.15 17.617q1.9 8.636 4.6 17.069c-9.745.813-20.063 1.225-30.8 1.225s-21.059-.412-30.8-1.225q2.693-8.421 4.6-17.069zm6.781-85.706h38.838l2.587 54.328q.257 5.376.825 10.734a26.278 26.278 0 0 1 -4.048-5.182c-4.512-7.55-11.359-11.88-18.783-11.88s-14.271 4.33-18.784 11.881a26.267 26.267 0 0 1 -4.047 5.181q.569-5.355.825-10.734zm38.076-16h-37.314l.761-16h35.796zm-2.285-48 .762 16h-34.268l.762-16zm-61.824 200.687a186.37 186.37 0 0 0 8.906-18.369c11.478 1.113 23.735 1.682 36.546 1.682s25.068-.569 36.546-1.682a186.37 186.37 0 0 0 8.906 18.369 147.742 147.742 0 0 1 18.548 71.578v25.606c-3.574.844-8.91 1.939-16 2.971v-28.577a131.7 131.7 0 0 0 -16.535-63.808l-13.986 7.77a115.663 115.663 0 0 1 14.521 56.038v30.413c-9.033.785-19.687 1.322-32 1.322-33.163 0-54.6-3.94-64-6.145v-25.59a147.742 147.742 0 0 1 18.548-71.578zm102.952 242.56c-11.3 2.169-30.46 4.753-57.5 4.753s-46.195-2.584-57.5-4.753a8.013 8.013 0 0 1 -6.5-7.858v-25.126c11.651 2.465 32.953 5.737 64 5.737s52.349-3.272 64-5.737v25.126a8.012 8.012 0 0 1 -6.5 7.858z" fill="url(#New_Gradient_Swatch_2)"/><path d="m288 400h16v16h-16z" fill="url(#New_Gradient_Swatch_2-2)"/><path d="m248 368h16v16h-16z" fill="url(#New_Gradient_Swatch_2)"/><path d="m224 400h48v16h-48z" fill="url(#New_Gradient_Swatch_2-4)"/></g></svg>